<?xml version="1.0" standalone="no"?>
<!DOCTYPE svg PUBLIC "-//W3C//DTD SVG 20010904//EN"
 "http://www.w3.org/TR/2001/REC-SVG-20010904/DTD/svg10.dtd">
<svg version="1.0" xmlns="http://www.w3.org/2000/svg"
 width="473.000000pt" height="473.000000pt" viewBox="0 0 473.000000 473.000000"
 preserveAspectRatio="xMidYMid meet">

<g transform="translate(0.000000,473.000000) scale(0.100000,-0.100000)"
fill="#000000" stroke="none">
<path d="M2225 3743 c-428 -52 -781 -265 -1012 -609 -41 -59 -123 -212 -123
-226 0 -5 22 -8 50 -8 48 0 50 1 70 40 l20 40 146 0 146 0 -4 -22 c-3 -13 -7
-30 -9 -38 -3 -12 6 -15 41 -15 42 0 46 2 63 38 l17 37 154 0 154 0 -5 -40 -6
-40 46 0 c45 0 46 1 53 36 4 19 12 38 18 40 7 3 59 3 115 2 l103 -3 -69 -47
c-80 -55 -177 -152 -222 -223 -100 -157 -111 -346 -32 -511 l39 -81 -54 -53
c-58 -57 -66 -83 -36 -121 33 -39 75 -30 135 29 l52 51 25 -21 c41 -34 116
-67 187 -84 112 -26 229 -10 376 51 12 5 17 3 17 -8 0 -8 15 -30 34 -48 19
-19 37 -44 41 -56 6 -20 3 -23 -24 -23 -26 0 -32 -5 -39 -32 l-8 -33 -136 -3
-137 -3 -3 33 c-3 32 -4 33 -48 33 -44 0 -45 -1 -48 -33 l-3 -33 -137 3 -136
3 -8 33 c-8 32 -11 33 -51 30 -40 -3 -42 -4 -41 -35 l2 -33 -155 0 -154 0 -15
36 c-14 34 -16 35 -62 32 -48 -3 -48 -3 -35 -50 5 -17 -7 -18 -144 -18 l-149
0 -17 35 c-16 33 -20 35 -63 35 -45 0 -46 -1 -40 -27 4 -16 28 -64 53 -108
204 -358 528 -592 943 -681 125 -27 409 -25 540 4 403 88 733 333 930 688 63
114 64 124 6 124 -40 0 -46 -3 -65 -35 l-20 -35 -146 0 -146 0 7 35 6 35 -41
0 c-37 0 -44 -4 -62 -35 -19 -32 -25 -35 -69 -35 -44 0 -50 3 -67 33 -11 17
-45 61 -75 97 -30 36 -61 82 -67 102 -7 21 -21 40 -32 43 -10 4 -24 15 -29 26
-7 12 -21 19 -39 19 -18 0 -34 8 -42 21 l-14 20 -50 -23 c-43 -20 -66 -23
-160 -23 -106 0 -113 1 -180 35 -38 19 -71 40 -72 45 -2 6 89 102 202 215
l205 205 58 -58 58 -57 66 68 66 67 -124 119 -125 119 -67 -7 c-37 -4 -89 -9
-115 -13 l-49 -6 71 -71 71 -71 -206 -205 c-194 -194 -206 -204 -220 -185 -41
55 -45 177 -9 279 47 134 213 342 278 348 26 2 33 8 35 30 5 44 20 49 153 46
l123 -3 9 -37 c9 -37 10 -38 54 -38 l46 0 -6 40 -5 40 154 0 154 0 17 -37 c17
-35 21 -38 67 -41 53 -3 50 -9 30 58 -6 19 -2 20 142 20 l149 0 20 -38 c18
-34 24 -37 68 -40 26 -2 47 1 47 6 0 22 -95 191 -152 270 -259 360 -691 578
-1133 571 -49 -1 -103 -4 -120 -6z m85 -388 l0 -285 -126 0 -125 0 6 23 c35
114 109 297 167 410 39 75 72 137 74 137 2 0 4 -128 4 -285z m149 207 c55 -96
113 -230 162 -370 21 -63 39 -116 39 -118 0 -2 -24 -4 -52 -4 l-53 0 34 22
c49 31 27 32 -59 3 -40 -14 -84 -25 -97 -25 l-23 0 0 287 c0 157 2 284 4 282
2 -2 23 -37 45 -77z m-319 -32 c-62 -123 -103 -224 -145 -355 l-32 -100 -148
-3 -147 -3 32 58 c64 115 136 210 230 304 85 85 229 199 252 199 4 0 -14 -45
-42 -100z m476 51 c150 -105 315 -290 402 -451 l34 -61 -146 3 -147 3 -43 130
c-50 148 -102 272 -151 363 -19 34 -31 62 -26 62 4 0 39 -22 77 -49z m-733
-63 c-94 -92 -203 -236 -268 -355 l-50 -93 -137 0 c-82 0 -138 4 -138 10 0 12
78 110 139 174 113 119 301 248 446 307 38 16 73 29 76 29 4 0 -27 -33 -68
-72z m1023 17 c202 -94 415 -274 517 -435 l19 -30 -144 0 -143 0 -30 62 c-55
113 -146 239 -254 351 -117 121 -115 123 35 52z m-1293 -1959 c61 -117 151
-238 258 -345 97 -96 91 -98 -77 -16 -115 56 -196 111 -300 202 -62 53 -161
166 -197 223 l-19 30 144 0 143 0 48 -94z m392 -41 c48 -146 100 -270 150
-362 19 -35 31 -63 26 -63 -4 0 -41 23 -82 52 -140 98 -305 284 -398 451 l-33
58 147 -3 147 -3 43 -130z m305 -152 c0 -315 4 -302 -57 -193 -46 81 -109 227
-154 358 -21 63 -39 116 -39 118 0 2 56 4 125 4 l125 0 0 -287z m350 283 c0
-15 -68 -205 -102 -286 -35 -83 -107 -225 -138 -270 -7 -10 -10 76 -10 273 l0
287 125 0 c69 0 125 -2 125 -4z m197 -31 c27 -27 42 -35 70 -35 38 0 83 31 83
57 0 7 9 13 20 13 20 0 20 0 -1 -42 -56 -111 -171 -260 -272 -354 -69 -65
-227 -182 -227 -169 0 3 13 29 30 58 57 102 132 290 195 495 3 6 19 12 36 12
23 0 41 -9 66 -35z m551 -12 c-108 -158 -340 -347 -530 -432 -119 -54 -119
-50 -12 61 101 106 208 253 260 361 l28 57 144 0 143 0 -33 -47z"/>
<path d="M1108 2729 c-191 -11 -318 -72 -346 -167 -17 -54 -15 -77 8 -121 39
-77 108 -99 405 -126 191 -17 240 -27 249 -50 11 -30 -40 -48 -147 -53 -129
-6 -211 10 -233 44 -16 24 -19 24 -165 24 l-149 0 0 -26 c0 -35 32 -86 76
-119 84 -64 222 -94 429 -94 286 -1 424 45 483 159 53 105 8 213 -103 245 -47
14 -231 36 -427 51 -95 7 -133 23 -110 46 29 30 312 19 312 -12 0 -6 62 -10
155 -10 102 0 155 4 155 10 0 20 -28 65 -57 92 -90 85 -276 122 -535 107z"/>
<path d="M3020 2385 l0 -325 135 0 135 0 0 75 0 75 310 0 310 0 0 95 0 95
-310 0 -310 0 0 55 0 55 330 0 330 0 0 100 0 100 -465 0 -465 0 0 -325z"/>
</g>
</svg>
