<?xml version="1.0" standalone="no"?>
<!DOCTYPE svg PUBLIC "-//W3C//DTD SVG 20010904//EN"
 "http://www.w3.org/TR/2001/REC-SVG-20010904/DTD/svg10.dtd">
<svg version="1.0" xmlns="http://www.w3.org/2000/svg"
 width="192.000000pt" height="192.000000pt" viewBox="0 0 192.000000 192.000000"
 preserveAspectRatio="xMidYMid meet">
<metadata>
Created by potrace 1.14, written by Peter Selinger 2001-2017
</metadata>
<g transform="translate(0.000000,192.000000) scale(0.100000,-0.100000)"
fill="#000000" stroke="none">
<path d="M869 1916 c-2 -2 -31 -7 -64 -11 -32 -3 -67 -11 -77 -16 -10 -5 -18
-8 -18 -5 0 3 -24 -3 -53 -13 -184 -64 -352 -186 -468 -342 -27 -37 -49 -70
-49 -74 0 -4 -8 -19 -19 -33 -19 -28 -78 -170 -86 -209 -3 -13 -7 -33 -10 -45
-24 -100 -27 -310 -6 -398 36 -151 99 -293 174 -387 44 -56 142 -152 195 -192
86 -65 251 -145 322 -157 14 -3 32 -7 40 -10 33 -12 121 -19 235 -18 249 1
470 96 651 278 92 93 130 145 185 257 93 188 121 430 74 629 -3 14 -8 35 -11
48 -16 80 -84 216 -156 314 -143 194 -377 338 -610 374 -42 6 -244 14 -249 10z"/>
</g>
</svg>
